<svg width="400" height="400" viewBox="0 0 400 400" fill="none" xmlns="http://www.w3.org/2000/svg">
<g clip-path="url(#clip0_4100_1007)">
<path d="M203.065 8.64581C216.192 3.45618 230.419 13.1304 230.419 27.2454V372.989C230.419 387.108 216.184 396.782 203.057 391.584L62.6377 335.989C55.01 332.969 50 325.597 50 317.393V82.761C50.0001 74.5539 55.0142 67.18 62.6465 64.1624L203.065 8.64581ZM146.009 128.235C143.711 128.235 142.563 128.381 140.922 128.381C140.922 153.105 141.086 203.436 141.086 230.073C141.086 230.073 136.491 228.013 132.389 227.866C125.825 227.718 122.05 228.748 116.963 230.955C101.866 238.019 96.7782 249.94 105.968 257.446C113.845 263.774 131.404 259.359 140.43 249.646C142.399 247.585 145.844 241.552 145.845 238.167C145.845 217.891 146.008 164.461 146.009 164.29C149.455 164.29 161.926 169.146 167.178 174.739C173.742 181.361 177.844 194.017 176.367 202.994C175.218 210.353 170.624 219.183 167.342 227.424C169.639 228.307 180.306 205.055 180.47 194.164C180.47 182.538 176.204 173.856 161.599 159.286C150.112 147.955 147.814 144.276 146.173 135.004C146.009 134.121 146.009 133.385 146.009 132.061V128.235Z" fill="#0582CA"/>
<path d="M277.342 37.7544L242.342 50.0828C239.141 51.2103 237 54.2347 237 57.6284V342.285C237 345.674 239.135 348.695 242.329 349.826L277.329 362.221C282.536 364.065 288 360.203 288 354.68V45.3C288 39.7824 282.546 35.9213 277.342 37.7544Z" fill="#0582CA"/>
<path d="M336.043 60.5121L301.043 69.3415C297.49 70.2379 295 73.4339 295 77.0985V322.902C295 326.567 297.49 329.763 301.043 330.659L336.043 339.488C341.096 340.763 346 336.943 346 331.731V68.269C346 63.0574 341.096 59.2373 336.043 60.5121Z" fill="#0582CA"/>
</g>
<defs>
<clipPath id="clip0_4100_1007">
<rect width="400" height="400" rx="88" fill="white"/>
</clipPath>
</defs>
</svg>
